<svg xmlns="http://www.w3.org/2000/svg" xmlns:xlink="http://www.w3.org/1999/xlink" version="1.1" x="0px" y="0px" viewBox="0 0 100 125" style="enable-background:new 0 0 100 100;" xml:space="preserve"><path d="M55,31c0,2.8-2.2,5-5,5s-5-2.2-5-5s2.2-5,5-5S55,28.2,55,31z M64,36c2.8,0,5-2.2,5-5s-2.2-5-5-5s-5,2.2-5,5S61.2,36,64,36z   M36,26c-2.8,0-5,2.2-5,5s2.2,5,5,5s5-2.2,5-5S38.8,26,36,26z M50,40c-2.8,0-5,2.2-5,5s2.2,5,5,5s5-2.2,5-5S52.8,40,50,40z M64,40  c-2.8,0-5,2.2-5,5s2.2,5,5,5s5-2.2,5-5S66.8,40,64,40z M36,40c-2.8,0-5,2.2-5,5s2.2,5,5,5s5-2.2,5-5S38.8,40,36,40z M50,54  c-2.8,0-5,2.2-5,5s2.2,5,5,5s5-2.2,5-5S52.8,54,50,54z M50,68c-2.8,0-5,2.2-5,5s2.2,5,5,5s5-2.2,5-5S52.8,68,50,68z M64,54  c-2.8,0-5,2.2-5,5s2.2,5,5,5s5-2.2,5-5S66.8,54,64,54z M36,54c-2.8,0-5,2.2-5,5s2.2,5,5,5s5-2.2,5-5S38.8,54,36,54z"/><text x="0" y="115" fill="#000000" font-size="5px" font-weight="bold" font-family="'Helvetica Neue', Helvetica, Arial-Unicode, Arial, Sans-serif">Created by Setyo Ari Wibowo</text><text x="0" y="120" fill="#000000" font-size="5px" font-weight="bold" font-family="'Helvetica Neue', Helvetica, Arial-Unicode, Arial, Sans-serif">from the Noun Project</text></svg>